# xmcd CD database file
#
# Track frame offsets:
#	150
#	15767
#	32615
#	52282
#	66367
#	77885
#	92195
#	109867
#	123855
#	140277
#	154162
#	171437
#
# Disc length: 2488 seconds
#
# Revision: 1
# Processed by: cddbd v1.5.2PL0 Copyright (c) Steve Scherf et al.
# Submitted via: CDex 1.50
#
DISCID=9d09b60c
DTITLE=Sertanejo and Country - Esso Ultron Music Collection
DYEAR=2000
DGENRE=Country
TTITLE0=Bailão de Peão (Chitãozinho e Xororó)
TTITLE1=I've Got This Feeling (The Mavericks)
TTITLE2=A Mulher em Mim (Roberta Miranda)
TTITLE3=Não Acredito (Adalberto a Adriano)
TTITLE4=I dont't Understand My Girlfriend (Toby Keith)
TTITLE5=De São Paulo à Belém (Rio Negro e Solimões)
TTITLE6=Those Words We Said (Kim Richey)
TTITLE7=O Primeiro Pecado (Danny e Daniel)
TTITLE8=Excesso de Amor (Maurício e Mauri)
TTITLE9=Bubba Shot The Jukebox (Mark Chesnutt)
TTITLE10=Eu Menti (Chitãozinho e Xororó)
TTITLE11=Achy Breaky Heart (Billy Ray Cyrus)
EXTD=YEAR: 2000
EXTT0=
EXTT1=
EXTT2=
EXTT3=
EXTT4=
EXTT5=
EXTT6=
EXTT7=
EXTT8=
EXTT9=
EXTT10=
EXTT11=
PLAYORDER=
